<svg width="40" height="40" viewBox="0 0 40 40" fill="none" xmlns="http://www.w3.org/2000/svg">
<g clip-path="url(#clip0)">
<path fill-rule="evenodd" clip-rule="evenodd" d="M14.3047 2.01364C15.594 0.724329 17.3427 0 19.166 0C20.9894 0 22.7381 0.724329 24.0274 2.01364C25.3167 3.30295 26.041 5.05164 26.041 6.875C26.041 8.69836 25.3167 10.447 24.0274 11.7364C22.7381 13.0257 20.9894 13.75 19.166 13.75C17.3427 13.75 15.594 13.0257 14.3047 11.7364C13.0153 10.447 12.291 8.69836 12.291 6.875C12.291 5.05164 13.0153 3.30295 14.3047 2.01364ZM19.166 2.5C18.0057 2.5 16.8929 2.96094 16.0724 3.78141C15.252 4.60188 14.791 5.71468 14.791 6.875C14.791 8.03532 15.252 9.14812 16.0724 9.96859C16.8929 10.7891 18.0057 11.25 19.166 11.25C20.3263 11.25 21.4391 10.7891 22.2596 9.96859C23.0801 9.14812 23.541 8.03532 23.541 6.875C23.541 5.71468 23.0801 4.60188 22.2596 3.78141C21.4391 2.96094 20.3263 2.5 19.166 2.5Z" fill="#CACBD2"/>
<path fill-rule="evenodd" clip-rule="evenodd" d="M11.5707 16.5752C13.6497 14.6869 16.3575 13.6406 19.1661 13.6406C21.9747 13.6406 24.6826 14.6869 26.7616 16.5752C27.2726 17.0394 27.3106 17.83 26.8464 18.341C26.3823 18.852 25.5917 18.89 25.0807 18.4258C23.4618 16.9553 21.3532 16.1406 19.1661 16.1406C16.9791 16.1406 14.8705 16.9553 13.2516 18.4258C12.7406 18.89 11.95 18.852 11.4859 18.341C11.0217 17.83 11.0597 17.0394 11.5707 16.5752Z" fill="#CACBD2"/>
<path fill-rule="evenodd" clip-rule="evenodd" d="M13.1349 3.68379C13.6029 3.17632 14.3937 3.14435 14.9012 3.6124C16.7435 5.31157 19.1589 6.25332 21.6652 6.24959L21.6681 6.24959C22.6078 6.25034 23.5429 6.11867 24.4459 5.85846C25.1093 5.66731 25.802 6.05011 25.9932 6.71347C26.1843 7.37683 25.8015 8.06956 25.1382 8.26072C24.01 8.58581 22.8416 8.75039 21.6676 8.74959C18.5324 8.75391 15.5109 7.5757 13.2063 5.45012C12.6988 4.98207 12.6668 4.19126 13.1349 3.68379Z" fill="#CACBD2"/>
<path fill-rule="evenodd" clip-rule="evenodd" d="M25.9716 22.0136C27.261 20.7243 29.0096 20 30.833 20C32.6564 20 34.4051 20.7243 35.6944 22.0136C36.9837 23.303 37.708 25.0516 37.708 26.875C37.708 28.6984 36.9837 30.447 35.6944 31.7364C34.4051 33.0257 32.6564 33.75 30.833 33.75C29.0096 33.75 27.261 33.0257 25.9716 31.7364C24.6823 30.447 23.958 28.6984 23.958 26.875C23.958 25.0516 24.6823 23.303 25.9716 22.0136ZM30.833 22.5C29.6727 22.5 28.5599 22.9609 27.7394 23.7814C26.9189 24.6019 26.458 25.7147 26.458 26.875C26.458 28.0353 26.9189 29.1481 27.7394 29.9686C28.5599 30.7891 29.6727 31.25 30.833 31.25C31.9933 31.25 33.1061 30.7891 33.9266 29.9686C34.7471 29.1481 35.208 28.0353 35.208 26.875C35.208 25.7147 34.7471 24.6019 33.9266 23.7814C33.1061 22.9609 31.9933 22.5 30.833 22.5Z" fill="#CACBD2"/>
<path fill-rule="evenodd" clip-rule="evenodd" d="M25.8811 34.7806C27.4236 34.0279 29.1174 33.6367 30.8337 33.6367C32.5501 33.6367 34.2439 34.0279 35.7864 34.7806C37.3289 35.5333 38.6795 36.6277 39.7357 37.9807C40.1605 38.5248 40.0638 39.3103 39.5196 39.7352C38.9754 40.16 38.1899 40.0632 37.7651 39.519C36.9427 38.4656 35.891 37.6135 34.69 37.0274C33.489 36.4413 32.1701 36.1367 30.8337 36.1367C29.4973 36.1367 28.1785 36.4413 26.9774 37.0274C25.7764 37.6135 24.7247 38.4656 23.9024 39.519C23.4775 40.0632 22.692 40.16 22.1479 39.7352C21.6037 39.3103 21.5069 38.5248 21.9317 37.9807C22.9879 36.6277 24.3386 35.5333 25.8811 34.7806Z" fill="#CACBD2"/>
<path fill-rule="evenodd" clip-rule="evenodd" d="M24.7991 23.6858C25.266 23.1773 26.0567 23.1436 26.5652 23.6106C27.8303 24.7723 29.3729 25.5893 31.0447 25.9829C32.7166 26.3766 34.4616 26.3337 36.1122 25.8584C36.7756 25.6674 37.4682 26.0503 37.6592 26.7137C37.8503 27.3771 37.4674 28.0697 36.804 28.2608C34.7415 28.8547 32.5609 28.9083 30.4718 28.4164C28.3826 27.9245 26.4551 26.9037 24.8742 25.4519C24.3658 24.985 24.3321 24.1942 24.7991 23.6858Z" fill="#CACBD2"/>
<path fill-rule="evenodd" clip-rule="evenodd" d="M6.53507 20.5233C7.36918 20.1778 8.26318 20 9.16602 20C10.0689 20 10.9629 20.1778 11.797 20.5233C12.6311 20.8688 13.389 21.3752 14.0274 22.0136C14.6658 22.652 15.1722 23.4099 15.5177 24.2441C15.8632 25.0782 16.041 25.9722 16.041 26.875C16.041 27.7778 15.8632 28.6718 15.5177 29.506C15.1722 30.3401 14.6658 31.098 14.0274 31.7364C13.389 32.3748 12.6311 32.8812 11.797 33.2267C10.9629 33.5722 10.0689 33.75 9.16602 33.75C8.26318 33.75 7.36918 33.5722 6.53507 33.2267C5.70096 32.8812 4.94306 32.3748 4.30466 31.7364C3.66625 31.098 3.15984 30.3401 2.81434 29.506C2.46884 28.6718 2.29102 27.7778 2.29102 26.875C2.29102 25.9722 2.46884 25.0782 2.81434 24.2441C3.15984 23.4099 3.66625 22.652 4.30466 22.0136C4.94306 21.3752 5.70095 20.8688 6.53507 20.5233ZM9.16602 22.5C8.59148 22.5 8.02258 22.6132 7.49178 22.833C6.96098 23.0529 6.47868 23.3752 6.07242 23.7814C5.66617 24.1877 5.34391 24.67 5.12404 25.2008C4.90418 25.7316 4.79102 26.3005 4.79102 26.875C4.79102 27.4495 4.90418 28.0184 5.12404 28.5492C5.34391 29.08 5.66617 29.5623 6.07242 29.9686C6.47868 30.3748 6.96098 30.6971 7.49178 30.917C8.02258 31.1368 8.59148 31.25 9.16602 31.25C9.74055 31.25 10.3095 31.1368 10.8403 30.917C11.3711 30.6971 11.8534 30.3748 12.2596 29.9686C12.6659 29.5623 12.9881 29.08 13.208 28.5492C13.4279 28.0184 13.541 27.4495 13.541 26.875C13.541 26.3005 13.4279 25.7316 13.208 25.2008C12.9881 24.67 12.6659 24.1877 12.2596 23.7814C11.8534 23.3752 11.3711 23.0529 10.8403 22.833C10.3095 22.6132 9.74055 22.5 9.16602 22.5Z" fill="#CACBD2"/>
<path fill-rule="evenodd" clip-rule="evenodd" d="M4.21212 34.7806C5.75463 34.0279 7.44841 33.6367 9.16477 33.6367C10.8811 33.6367 12.5749 34.0279 14.1174 34.7806C15.6599 35.5333 17.0106 36.6277 18.0668 37.9807C18.4916 38.5248 18.3948 39.3103 17.8506 39.7352C17.3065 40.16 16.5209 40.0632 16.0961 39.519C15.2738 38.4656 14.2221 37.6135 13.0211 37.0274C11.82 36.4413 10.5012 36.1367 9.16477 36.1367C7.82836 36.1367 6.50953 36.4413 5.30848 37.0274C4.10744 37.6135 3.05578 38.4656 2.23342 39.519C1.8086 40.0632 1.02308 40.16 0.47891 39.7352C-0.0652634 39.3103 -0.162024 38.5248 0.262789 37.9807C1.31896 36.6277 2.66961 35.5333 4.21212 34.7806Z" fill="#CACBD2"/>
<path fill-rule="evenodd" clip-rule="evenodd" d="M3.13304 23.6858C3.59999 23.1773 4.39073 23.1436 4.89921 23.6106C6.16429 24.7723 7.70686 25.5893 9.37874 25.9829C11.0506 26.3766 12.7956 26.3337 14.4462 25.8584C15.1096 25.6674 15.8022 26.0503 15.9932 26.7137C16.1843 27.3771 15.8013 28.0697 15.1379 28.2608C13.0755 28.8547 10.8949 28.9083 8.80578 28.4164C6.71663 27.9245 4.78906 26.9037 3.20823 25.4519C2.69975 24.985 2.66609 24.1942 3.13304 23.6858Z" fill="#CACBD2"/>
</g>
<defs>
<clipPath id="clip0">
<rect width="40" height="40" fill="white"/>
</clipPath>
</defs>
</svg>
