<svg width="40" height="40" viewBox="0 0 40 40" fill="none" xmlns="http://www.w3.org/2000/svg">
<g clip-path="url(#clip0)">
<path d="M26.4444 17.4309C26.5751 17.3745 26.6891 17.2855 26.7756 17.1725C26.8622 17.0595 26.9183 16.9261 26.9387 16.7853C26.9591 16.6444 26.9431 16.5006 26.8921 16.3677C26.8412 16.2348 26.757 16.1171 26.6477 16.0259C25.9166 15.4166 25.1044 14.9118 24.2344 14.5259C24.1653 14.4961 24.1056 14.4481 24.0618 14.3869C24.0179 14.3258 23.9915 14.2539 23.9853 14.1789C23.9791 14.104 23.9935 14.0287 24.0268 13.9612C24.0601 13.8938 24.1111 13.8366 24.1744 13.7959C25.5362 12.9119 26.5757 11.6112 27.1379 10.088C27.7001 8.56483 27.7547 6.9007 27.2937 5.3439C26.8327 3.7871 25.8807 2.42105 24.5798 1.44954C23.279 0.478031 21.6988 -0.046875 20.0752 -0.046875C18.4516 -0.046875 16.8715 0.478031 15.5706 1.44954C14.2697 2.42105 13.3177 3.7871 12.8567 5.3439C12.3957 6.9007 12.4504 8.56483 13.0125 10.088C13.5747 11.6112 14.6142 12.9119 15.976 13.7959C16.0389 13.8369 16.0895 13.894 16.1226 13.9613C16.1557 14.0286 16.17 14.1035 16.164 14.1783C16.158 14.253 16.132 14.3248 16.0887 14.386C16.0453 14.4472 15.9862 14.4955 15.9177 14.5259C15.0265 14.9196 14.196 15.4381 13.451 16.0659C13.3432 16.1571 13.2602 16.2741 13.21 16.4061C13.1598 16.5381 13.1439 16.6807 13.1639 16.8205C13.1839 16.9603 13.2391 17.0927 13.3243 17.2053C13.4095 17.3179 13.522 17.407 13.651 17.4643C15.1923 18.1533 16.5357 19.2188 17.5577 20.5626C17.6353 20.6661 17.736 20.7501 17.8517 20.808C17.9674 20.8658 18.095 20.8959 18.2244 20.8959H21.781C21.9104 20.8959 22.038 20.8658 22.1537 20.808C22.2694 20.7501 22.3701 20.6661 22.4477 20.5626C23.4906 19.1945 24.8665 18.1163 26.4444 17.4309ZM16.1227 6.16594C16.1439 6.10669 16.1783 6.05302 16.2233 6.00896C16.2682 5.9649 16.3226 5.93159 16.3822 5.91154C16.4419 5.8915 16.5053 5.88523 16.5678 5.8932C16.6302 5.90118 16.69 5.9232 16.7427 5.9576C18.3149 6.98376 20.1519 7.52989 22.0294 7.52927C22.6088 7.52649 23.1868 7.4707 23.756 7.3626C23.8178 7.35122 23.8814 7.35396 23.942 7.37061C24.0025 7.38725 24.0585 7.41738 24.1058 7.45874C24.1531 7.50009 24.1904 7.5516 24.215 7.60942C24.2396 7.66724 24.2508 7.72986 24.2477 7.7926C24.1867 8.88404 23.7013 9.90834 22.8951 10.6466C22.0889 11.3849 21.0259 11.7786 19.9334 11.7435C18.8408 11.7085 17.8052 11.2475 17.048 10.4591C16.2908 9.67068 15.872 8.61738 15.881 7.52427C15.8827 7.06094 15.9644 6.60139 16.1227 6.16594V6.16594Z" fill="#2AFFA9"/>
<path d="M17.1114 26.6288C17.1184 25.3223 16.7851 24.0364 16.1445 22.8977C15.5039 21.7589 14.5779 20.8065 13.4576 20.1341C12.3374 19.4617 11.0614 19.0924 9.75517 19.0625C8.44893 19.0327 7.15742 19.3433 6.00761 19.9639C4.85781 20.5844 3.88931 21.4935 3.19733 22.6018C2.50536 23.7101 2.11375 24.9794 2.061 26.2849C2.00825 27.5904 2.29617 28.8872 2.89647 30.0477C3.49677 31.2082 4.38876 32.1925 5.48475 32.9038C5.54711 32.9451 5.59727 33.0023 5.63001 33.0695C5.66275 33.1367 5.67688 33.2115 5.67093 33.286C5.66497 33.3606 5.63915 33.4321 5.59615 33.4933C5.55315 33.5545 5.49454 33.603 5.42642 33.6338C4.78841 33.9154 4.18128 34.2622 3.61475 34.6688C2.32985 35.5811 1.27296 36.7777 0.526419 38.1655C0.425552 38.3556 0.375562 38.5686 0.381304 38.7838C0.387045 38.999 0.448322 39.209 0.559185 39.3935C0.670049 39.578 0.826731 39.7307 1.01402 39.8367C1.20131 39.9428 1.41285 39.9986 1.62809 39.9988H17.5381C17.7533 39.9986 17.9649 39.9428 18.1521 39.8367C18.3394 39.7307 18.4961 39.578 18.607 39.3935C18.7178 39.209 18.7791 38.999 18.7849 38.7838C18.7906 38.5686 18.7406 38.3556 18.6398 38.1655C17.8936 36.7765 16.8367 35.5787 15.5514 34.6655C14.9849 34.2589 14.3778 33.912 13.7398 33.6305C13.6712 33.6001 13.6122 33.5517 13.5688 33.4905C13.5255 33.4294 13.4994 33.3576 13.4934 33.2829C13.4875 33.2081 13.5018 33.1331 13.5349 33.0658C13.568 32.9985 13.6186 32.9414 13.6814 32.9005C14.7308 32.2241 15.5944 31.296 16.1935 30.2006C16.7926 29.1052 17.1081 27.8773 17.1114 26.6288V26.6288ZM5.62975 25.2655C5.65099 25.2062 5.68537 25.1526 5.73032 25.1085C5.77526 25.0645 5.82961 25.0312 5.88927 25.0111C5.94894 24.9911 6.01236 24.9848 6.0748 24.9928C6.13723 25.0007 6.19705 25.0228 6.24975 25.0572C7.82196 26.0833 9.65896 26.6294 11.5364 26.6288C12.1159 26.6261 12.6938 26.5703 13.2631 26.4622C13.3249 26.4514 13.3884 26.4545 13.4489 26.4712C13.5094 26.488 13.5655 26.5179 13.6131 26.5588C13.6603 26.6002 13.6975 26.6516 13.722 26.7093C13.7466 26.767 13.7577 26.8295 13.7548 26.8922C13.6938 27.9836 13.2083 29.0079 12.4021 29.7462C11.5959 30.4844 10.533 30.8781 9.4404 30.8431C8.34782 30.808 7.31228 30.3471 6.55506 29.5586C5.79785 28.7702 5.37902 27.7169 5.38809 26.6238C5.38969 26.1605 5.47146 25.701 5.62975 25.2655V25.2655Z" fill="#2AFFA9"/>
<path d="M36.3844 34.665C35.8179 34.2584 35.2108 33.9115 34.5728 33.63C34.5042 33.5996 34.4452 33.5512 34.4018 33.49C34.3585 33.4288 34.3324 33.3571 34.3264 33.2823C34.3205 33.2076 34.3348 33.1326 34.3679 33.0653C34.401 32.998 34.4516 32.9409 34.5144 32.9C35.8764 32.0161 36.9162 30.7155 37.4785 29.1922C38.0409 27.669 38.0956 26.0048 37.6347 24.4479C37.1738 22.891 36.2219 21.5248 34.9209 20.5532C33.62 19.5816 32.0398 19.0566 30.4161 19.0566C28.7924 19.0566 27.2122 19.5816 25.9113 20.5532C24.6103 21.5248 23.6584 22.891 23.1975 24.4479C22.7365 26.0048 22.7913 27.669 23.3537 29.1922C23.916 30.7155 24.9557 32.0161 26.3178 32.9C26.3801 32.9412 26.4303 32.9985 26.463 33.0657C26.4958 33.1329 26.5099 33.2077 26.5039 33.2822C26.498 33.3567 26.4722 33.4283 26.4292 33.4895C26.3862 33.5506 26.3275 33.5992 26.2594 33.63C25.6214 33.9115 25.0143 34.2584 24.4478 34.665C23.1625 35.5782 22.1055 36.776 21.3594 38.165C21.2586 38.3551 21.2086 38.5681 21.2143 38.7833C21.2201 38.9985 21.2813 39.2085 21.3922 39.393C21.5031 39.5775 21.6597 39.7302 21.847 39.8362C22.0343 39.9423 22.2459 39.9981 22.4611 39.9983H38.3711C38.5863 39.9981 38.7979 39.9423 38.9851 39.8362C39.1724 39.7302 39.3291 39.5775 39.44 39.393C39.5508 39.2085 39.6121 38.9985 39.6179 38.7833C39.6236 38.5681 39.5736 38.3551 39.4728 38.165C38.7266 36.776 37.6697 35.5782 36.3844 34.665V34.665ZM26.4628 25.265C26.484 25.2057 26.5184 25.1521 26.5633 25.108C26.6083 25.064 26.6626 25.0306 26.7223 25.0106C26.7819 24.9906 26.8454 24.9843 26.9078 24.9923C26.9702 25.0002 27.0301 25.0223 27.0828 25.0567C28.655 26.0828 30.492 26.6289 32.3694 26.6283C32.9489 26.6255 33.5268 26.5698 34.0961 26.4617C34.1579 26.4509 34.2214 26.454 34.2819 26.4707C34.3424 26.4874 34.3985 26.5174 34.4461 26.5583C34.4933 26.5996 34.5305 26.6511 34.555 26.7088C34.5796 26.7665 34.5907 26.829 34.5878 26.8917C34.5268 27.9831 34.0413 29.0074 33.2351 29.7457C32.4289 30.4839 31.366 30.8776 30.2734 30.8426C29.1808 30.8075 28.1453 30.3465 27.3881 29.5581C26.6309 28.7697 26.212 27.7164 26.2211 26.6233C26.2227 26.16 26.3045 25.7004 26.4628 25.265V25.265Z" fill="#2AFFA9"/>
</g>
<defs>
<clipPath id="clip0">
<rect width="40" height="40" fill="white"/>
</clipPath>
</defs>
</svg>
