<svg width="140" height="140" viewBox="0 0 140 140" fill="none" xmlns="http://www.w3.org/2000/svg">
<g clip-path="url(#clip0)">
<path d="M74.375 29.166H39.375C38.2147 29.166 37.1019 29.627 36.2814 30.4474C35.4609 31.2679 35 32.3807 35 33.541C35 34.7013 35.4609 35.8141 36.2814 36.6346C37.1019 37.4551 38.2147 37.916 39.375 37.916H74.375C75.5353 37.916 76.6481 37.4551 77.4686 36.6346C78.2891 35.8141 78.75 34.7013 78.75 33.541C78.75 32.3807 78.2891 31.2679 77.4686 30.4474C76.6481 29.627 75.5353 29.166 74.375 29.166Z" fill="#303454"/>
<path d="M78.7497 53.959C78.7497 52.7987 78.2887 51.6859 77.4683 50.8654C76.6478 50.0449 75.535 49.584 74.3747 49.584H27.708C26.5477 49.584 25.4349 50.0449 24.6144 50.8654C23.7939 51.6859 23.333 52.7987 23.333 53.959C23.333 55.1193 23.7939 56.2321 24.6144 57.0526C25.4349 57.873 26.5477 58.334 27.708 58.334H74.3747C75.535 58.334 76.6478 57.873 77.4683 57.0526C78.2887 56.2321 78.7497 55.1193 78.7497 53.959Z" fill="#303454"/>
<path d="M27.708 70C26.5477 70 25.4349 70.4609 24.6144 71.2814C23.7939 72.1019 23.333 73.2147 23.333 74.375C23.333 75.5353 23.7939 76.6481 24.6144 77.4686C25.4349 78.2891 26.5477 78.75 27.708 78.75H59.7913C60.9517 78.75 62.0645 78.2891 62.8849 77.4686C63.7054 76.6481 64.1663 75.5353 64.1663 74.375C64.1663 73.2147 63.7054 72.1019 62.8849 71.2814C62.0645 70.4609 60.9517 70 59.7913 70H27.708Z" fill="#303454"/>
<path d="M65.9167 102.988C65.8056 102.721 65.6186 102.493 65.379 102.333C65.1394 102.172 64.8577 102.085 64.5692 102.083H14.5833C13.8098 102.083 13.0679 101.776 12.5209 101.229C11.974 100.682 11.6667 99.9402 11.6667 99.1667V14.5833C11.6667 13.8098 11.974 13.0679 12.5209 12.5209C13.0679 11.974 13.8098 11.6667 14.5833 11.6667H90.4167C91.1902 11.6667 91.9321 11.974 92.4791 12.5209C93.026 13.0679 93.3333 13.8098 93.3333 14.5833V73.325C93.334 73.6133 93.4201 73.895 93.5807 74.1344C93.7414 74.3738 93.9694 74.5602 94.2359 74.6701C94.5025 74.7799 94.7956 74.8083 95.0783 74.7517C95.361 74.695 95.6206 74.5558 95.8242 74.3517L103.291 66.885C104.385 65.7913 105 64.3078 105 62.7608V11.6667C105 8.57247 103.771 5.60501 101.583 3.41709C99.395 1.22916 96.4275 0 93.3333 0L11.6667 0C8.57247 0 5.60501 1.22916 3.41709 3.41709C1.22916 5.60501 0 8.57247 0 11.6667L0 102.083C0 105.178 1.22916 108.145 3.41709 110.333C5.60501 112.521 8.57247 113.75 11.6667 113.75H57.5633C58.1872 113.75 58.7947 113.55 59.2966 113.18C59.7984 112.809 60.1682 112.287 60.3517 111.691C60.9071 109.879 61.9102 108.236 63.2683 106.913L65.6017 104.58C65.8061 104.376 65.9451 104.115 66.0012 103.832C66.0573 103.548 66.0279 103.254 65.9167 102.988V102.988Z" fill="#303454"/>
<path d="M70.3617 117.431C70.1741 117.246 69.9402 117.115 69.6845 117.052C69.4288 116.989 69.1609 116.996 68.9089 117.073C68.6569 117.149 68.4302 117.292 68.2526 117.487C68.0751 117.681 67.9533 117.92 67.9 118.178L64.2367 136.5C64.1502 136.924 64.159 137.362 64.2625 137.782C64.3661 138.202 64.5617 138.593 64.8353 138.928C65.109 139.264 65.4536 139.534 65.8445 139.719C66.2353 139.904 66.6624 140 67.095 140C67.291 140.002 67.4866 139.982 67.6783 139.942L86.0125 136.273C86.2711 136.22 86.5106 136.099 86.7056 135.921C86.9006 135.744 87.0437 135.516 87.1197 135.264C87.1957 135.011 87.2018 134.743 87.1373 134.487C87.0728 134.231 86.9401 133.997 86.7533 133.811L70.3617 117.431Z" fill="#303454"/>
<path d="M135.497 68.6291C132.632 65.7723 128.751 64.168 124.705 64.168C120.659 64.168 116.778 65.7723 113.913 68.6291L75.9965 106.546C75.4497 107.093 75.1426 107.834 75.1426 108.608C75.1426 109.381 75.4497 110.123 75.9965 110.67L93.4965 128.17C94.0435 128.717 94.7852 129.024 95.5586 129.024C96.332 129.024 97.0738 128.717 97.6207 128.17L135.537 90.2533C136.955 88.8308 138.078 87.1431 138.843 85.2865C139.608 83.4299 140 81.4408 139.996 79.4327C139.992 77.4247 139.593 75.437 138.821 73.5833C138.049 71.7296 136.919 70.0462 135.497 68.6291V68.6291Z" fill="#303454"/>
</g>
<defs>
<clipPath id="clip0">
<rect width="140" height="140" fill="white"/>
</clipPath>
</defs>
</svg>
