<svg width="140" height="140" viewBox="0 0 140 140" fill="none" xmlns="http://www.w3.org/2000/svg">
<path d="M90.1594 64.96L55.6144 47.355C54.7135 46.8634 53.7026 46.6089 52.6764 46.6154C51.6503 46.6218 50.6426 46.8889 49.748 47.3916C48.8534 47.8943 48.1012 48.6161 47.5621 49.4893C47.023 50.3624 46.7146 51.3583 46.666 52.3833V87.6108C46.7183 88.6343 47.0288 89.628 47.5686 90.4992C48.1084 91.3704 48.8599 92.0908 49.7532 92.5933C50.6464 93.0958 51.6523 93.3641 52.6771 93.3731C53.702 93.3822 54.7124 93.1317 55.6144 92.645V92.645L90.1594 75.0341C91.1083 74.5782 91.9091 73.8635 92.4696 72.9723C93.0301 72.0812 93.3275 71.0498 93.3275 69.997C93.3275 68.9443 93.0301 67.9129 92.4696 67.0217C91.9091 66.1306 91.1083 65.4159 90.1594 64.96V64.96Z" fill="#303454"/>
<path d="M136.284 31.0564C135.855 28.5871 134.649 26.3193 132.841 24.5837C131.033 22.848 128.718 21.7354 126.233 21.4081C107.599 18.8278 88.8116 17.5045 69.9996 17.4473C51.1875 17.5045 32.4006 18.8278 13.7662 21.4081C11.2814 21.7354 8.96623 22.848 7.15821 24.5837C5.3502 26.3193 4.14395 28.5871 3.71539 31.0564C-1.23716 56.7805 -1.23716 83.2132 3.71539 108.937C4.14369 111.407 5.34971 113.676 7.15766 115.413C8.96561 117.149 11.281 118.263 13.7662 118.591C32.4003 121.174 51.1875 122.495 69.9996 122.546C88.8116 122.495 107.599 121.174 126.233 118.591C128.718 118.263 131.033 117.149 132.841 115.413C134.649 113.676 135.855 111.407 136.284 108.937C141.236 83.2132 141.236 56.7805 136.284 31.0564ZM125.171 104.778C125.066 105.391 124.767 105.954 124.319 106.386C123.871 106.817 123.297 107.094 122.68 107.176C105.22 109.556 87.6213 110.778 69.9996 110.833C52.3773 110.77 34.7785 109.541 17.3187 107.152C16.7022 107.07 16.1279 106.794 15.6798 106.362C15.2317 105.931 14.9332 105.368 14.8279 104.755C10.6178 81.7177 10.6554 58.105 14.9387 35.0814C15.0455 34.4687 15.3453 33.9061 15.7945 33.4758C16.2436 33.0455 16.8186 32.7701 17.4354 32.6898C34.8606 30.3645 52.4199 29.1875 69.9996 29.1664C87.5799 29.1972 105.139 30.3839 122.564 32.7189C123.181 32.7993 123.755 33.0747 124.205 33.505C124.654 33.9352 124.954 34.4978 125.06 35.1106C129.343 58.1323 129.381 81.7429 125.171 104.778V104.778Z" fill="#303454"/>
</svg>
