<svg width="40" height="41" viewBox="0 0 40 41" fill="none" xmlns="http://www.w3.org/2000/svg">
<path d="M38.3333 6.66885H38.295C38.0302 6.66904 37.7722 6.58502 37.5583 6.42892C37.3443 6.27283 37.1856 6.05276 37.105 5.80051C36.6253 4.28089 35.7183 2.93151 34.4922 1.91361C33.2662 0.895719 31.773 0.252362 30.191 0.0604221C28.6091 -0.131518 27.0054 0.136077 25.5715 0.83123C24.1376 1.52638 22.9341 2.61969 22.105 3.98051C22.0087 4.13715 21.8634 4.25756 21.6915 4.32297C21.5197 4.38839 21.3311 4.39514 21.155 4.34218C20.4012 4.11111 19.5955 4.11111 18.8417 4.34218C18.6656 4.39514 18.477 4.38839 18.3051 4.32297C18.1333 4.25756 17.9879 4.13715 17.8917 3.98051C17.0635 2.62312 15.8628 1.53222 14.4325 0.837654C13.0021 0.143084 11.4023 -0.125918 9.82349 0.0626591C8.24463 0.251237 6.7532 0.889453 5.52667 1.90136C4.30013 2.91327 3.39015 4.25626 2.905 5.77051C2.82007 6.03194 2.65446 6.25972 2.43197 6.42112C2.20947 6.58253 1.94154 6.66926 1.66667 6.66885C1.22464 6.66885 0.800716 6.84444 0.488155 7.157C0.175595 7.46956 0 7.89349 0 8.33551C0 8.77754 0.175595 9.20146 0.488155 9.51402C0.800716 9.82659 1.22464 10.0022 1.66667 10.0022C1.94189 10.0023 2.21001 10.0896 2.43251 10.2516C2.655 10.4136 2.82042 10.6419 2.905 10.9038C3.51635 12.7925 4.78185 14.4009 6.47368 15.4395C8.1655 16.478 10.1725 16.8785 12.1334 16.5688C14.0942 16.2591 15.8801 15.2596 17.1695 13.7502C18.4589 12.2408 19.1671 10.3207 19.1667 8.33551C19.1667 8.1145 19.2545 7.90254 19.4107 7.74626C19.567 7.58998 19.779 7.50218 20 7.50218C20.221 7.50218 20.433 7.58998 20.5893 7.74626C20.7455 7.90254 20.8333 8.1145 20.8333 8.33551C20.8329 10.3207 21.5411 12.2408 22.8305 13.7502C24.1199 15.2596 25.9058 16.2591 27.8666 16.5688C29.8275 16.8785 31.8345 16.478 33.5263 15.4395C35.2181 14.4009 36.4837 12.7925 37.095 10.9038C37.1796 10.6419 37.345 10.4136 37.5675 10.2516C37.79 10.0896 38.0581 10.0023 38.3333 10.0022C38.7754 10.0022 39.1993 9.82659 39.5118 9.51402C39.8244 9.20146 40 8.77754 40 8.33551C40 7.89349 39.8244 7.46956 39.5118 7.157C39.1993 6.84444 38.7754 6.66885 38.3333 6.66885V6.66885ZM10.8333 13.3355C9.84443 13.3355 8.87773 13.0423 8.05548 12.4929C7.23324 11.9435 6.59237 11.1626 6.21394 10.2489C5.8355 9.3353 5.73648 8.32997 5.92941 7.36006C6.12233 6.39016 6.59854 5.49924 7.2978 4.79998C7.99706 4.10072 8.88798 3.62451 9.85788 3.43159C10.8278 3.23866 11.8331 3.33768 12.7468 3.71612C13.6604 4.09455 14.4413 4.73542 14.9907 5.55766C15.5401 6.37991 15.8333 7.34661 15.8333 8.33551C15.8333 9.6616 15.3065 10.9334 14.3689 11.871C13.4312 12.8087 12.1594 13.3355 10.8333 13.3355ZM29.1667 13.3355C28.1778 13.3355 27.2111 13.0423 26.3888 12.4929C25.5666 11.9435 24.9257 11.1626 24.5473 10.2489C24.1688 9.3353 24.0698 8.32997 24.2627 7.36006C24.4557 6.39016 24.9319 5.49924 25.6311 4.79998C26.3304 4.10072 27.2213 3.62451 28.1912 3.43159C29.1611 3.23866 30.1665 3.33768 31.0801 3.71612C31.9937 4.09455 32.7746 4.73542 33.324 5.55766C33.8734 6.37991 34.1667 7.34661 34.1667 8.33551C34.1667 9.6616 33.6399 10.9334 32.7022 11.871C31.7645 12.8087 30.4927 13.3355 29.1667 13.3355Z" fill="#2AFFA9"/>
<path d="M33.3803 19.1862C33.0082 18.916 32.5775 18.7376 32.1234 18.6654C31.6693 18.5933 31.2045 18.6295 30.767 18.7712L20.5153 22.1045C20.1806 22.2132 19.8201 22.2132 19.4853 22.1045L9.23533 18.7712C8.79747 18.6292 8.33225 18.5928 7.87766 18.665C7.42306 18.7372 6.99199 18.9159 6.61965 19.1865C6.2473 19.4571 5.94424 19.8119 5.73523 20.222C5.52621 20.6321 5.41717 21.0859 5.417 21.5461V33.2128C5.41592 33.8291 5.61067 34.4298 5.97313 34.9283C6.33559 35.4268 6.84703 35.7972 7.43366 35.9861L19.6153 39.9461C19.8658 40.0262 20.1349 40.0262 20.3853 39.9461L32.567 35.9861C33.1536 35.7972 33.6651 35.4268 34.0275 34.9283C34.39 34.4298 34.5847 33.8291 34.5837 33.2128V21.5461C34.5831 21.0858 34.4738 20.6321 34.2647 20.222C34.0556 19.8119 33.7526 19.457 33.3803 19.1862V19.1862ZM30.0003 25.8728C30.0004 26.0541 29.9413 26.2304 29.8322 26.375C29.723 26.5197 29.5696 26.6248 29.3953 26.6745L25.2287 27.8645C25.1046 27.8998 24.9741 27.9059 24.8474 27.8822C24.7206 27.8585 24.6011 27.8058 24.4982 27.7281C24.3953 27.6504 24.3118 27.5498 24.2543 27.4344C24.1969 27.319 24.167 27.1918 24.167 27.0628V25.8795C24.1673 25.6985 24.2265 25.5226 24.3357 25.3783C24.4448 25.2339 24.598 25.1291 24.772 25.0795L28.9387 23.8878C29.0627 23.8525 29.1932 23.8464 29.32 23.8701C29.4467 23.8938 29.5663 23.9465 29.6692 24.0242C29.7721 24.1019 29.8555 24.2025 29.913 24.3179C29.9705 24.4333 30.0004 24.5605 30.0003 24.6895V25.8728Z" fill="#2AFFA9"/>
</svg>
