<svg width="40" height="40" viewBox="0 0 40 40" fill="none" xmlns="http://www.w3.org/2000/svg">
<path fill-rule="evenodd" clip-rule="evenodd" d="M7.60742 26.8574C7.60742 26.1671 8.16707 25.6074 8.85742 25.6074H33.1431C33.8335 25.6074 34.3931 26.1671 34.3931 26.8574C34.3931 27.5478 33.8335 28.1074 33.1431 28.1074H8.85742C8.16707 28.1074 7.60742 27.5478 7.60742 26.8574Z" fill="#CACBD2"/>
<path fill-rule="evenodd" clip-rule="evenodd" d="M7.60742 30.8574C7.60742 30.1671 8.16707 29.6074 8.85742 29.6074H33.1431C33.8335 29.6074 34.3931 30.1671 34.3931 30.8574C34.3931 31.5478 33.8335 32.1074 33.1431 32.1074H8.85742C8.16707 32.1074 7.60742 31.5478 7.60742 30.8574Z" fill="#CACBD2"/>
<path fill-rule="evenodd" clip-rule="evenodd" d="M8.37987 3.07286C9.28982 2.69595 10.2651 2.50195 11.25 2.50195C12.2349 2.50195 13.2102 2.69595 14.1201 3.07286C15.0301 3.44977 15.8569 4.00221 16.5533 4.69865C17.2497 5.39509 17.8022 6.22189 18.1791 7.13183C18.556 8.04177 18.75 9.01704 18.75 10.002C18.75 10.9869 18.556 11.9621 18.1791 12.8721C17.8022 13.782 17.2497 14.6088 16.5533 15.3053C15.8569 16.0017 15.0301 16.5541 14.1201 16.9311C13.2102 17.308 12.2349 17.502 11.25 17.502C10.2651 17.502 9.28982 17.308 8.37987 16.9311C7.46993 16.5541 6.64314 16.0017 5.9467 15.3053C5.25026 14.6088 4.69781 13.782 4.3209 12.8721C3.94399 11.9621 3.75 10.9869 3.75 10.002C3.75 9.01704 3.94399 8.04177 4.3209 7.13183C4.69781 6.22188 5.25026 5.39509 5.9467 4.69865C6.64314 4.00221 7.46993 3.44977 8.37987 3.07286ZM11.25 5.00195C10.5934 5.00195 9.94321 5.13128 9.33658 5.38256C8.72995 5.63383 8.17876 6.00213 7.71447 6.46642C7.25017 6.93071 6.88188 7.48191 6.6306 8.08854C6.37933 8.69516 6.25 9.34534 6.25 10.002C6.25 10.6586 6.37933 11.3087 6.6306 11.9154C6.88188 12.522 7.25017 13.0732 7.71447 13.5375C8.17876 14.0018 8.72995 14.3701 9.33658 14.6214C9.94321 14.8726 10.5934 15.002 11.25 15.002C11.9066 15.002 12.5568 14.8726 13.1634 14.6214C13.77 14.3701 14.3212 14.0018 14.7855 13.5375C15.2498 13.0732 15.6181 12.522 15.8694 11.9154C16.1207 11.3087 16.25 10.6586 16.25 10.002C16.25 9.34534 16.1207 8.69516 15.8694 8.08854C15.6181 7.48191 15.2498 6.93071 14.7855 6.46642C14.3212 6.00213 13.77 5.63383 13.1634 5.38256C12.5568 5.13128 11.9066 5.00195 11.25 5.00195Z" fill="#CACBD2"/>
<path fill-rule="evenodd" clip-rule="evenodd" d="M25.8799 3.07286C26.7898 2.69595 27.7651 2.50195 28.75 2.50195C29.7349 2.50195 30.7102 2.69595 31.6201 3.07286C32.5301 3.44977 33.3569 4.00221 34.0533 4.69865C34.7497 5.39509 35.3022 6.22189 35.6791 7.13183C36.056 8.04177 36.25 9.01704 36.25 10.002C36.25 10.9869 36.056 11.9621 35.6791 12.8721C35.3022 13.782 34.7497 14.6088 34.0533 15.3053C33.3569 16.0017 32.5301 16.5541 31.6201 16.9311C30.7102 17.308 29.7349 17.502 28.75 17.502C27.7651 17.502 26.7898 17.308 25.8799 16.9311C24.9699 16.5541 24.1431 16.0017 23.4467 15.3053C22.7503 14.6088 22.1978 13.782 21.8209 12.8721C21.444 11.9621 21.25 10.9869 21.25 10.002C21.25 9.01704 21.444 8.04177 21.8209 7.13183C22.1978 6.22189 22.7503 5.39509 23.4467 4.69865C24.1431 4.00221 24.9699 3.44977 25.8799 3.07286ZM28.75 5.00195C28.0934 5.00195 27.4432 5.13128 26.8366 5.38256C26.23 5.63383 25.6788 6.00213 25.2145 6.46642C24.7502 6.93071 24.3819 7.48191 24.1306 8.08854C23.8793 8.69516 23.75 9.34534 23.75 10.002C23.75 10.6586 23.8793 11.3087 24.1306 11.9154C24.3819 12.522 24.7502 13.0732 25.2145 13.5375C25.6788 14.0018 26.23 14.3701 26.8366 14.6214C27.4432 14.8726 28.0934 15.002 28.75 15.002C29.4066 15.002 30.0568 14.8726 30.6634 14.6214C31.27 14.3701 31.8212 14.0018 32.2855 13.5375C32.7498 13.0732 33.1181 12.522 33.3694 11.9154C33.6207 11.3087 33.75 10.6586 33.75 10.002C33.75 9.34534 33.6207 8.69516 33.3694 8.08854C33.1181 7.48191 32.7498 6.93071 32.2855 6.46642C31.8212 6.00213 31.27 5.63383 30.6634 5.38256C30.0568 5.13128 29.4066 5.00195 28.75 5.00195Z" fill="#CACBD2"/>
<path fill-rule="evenodd" clip-rule="evenodd" d="M20 8.87109C19.6685 8.87109 19.3505 9.00279 19.1161 9.23721C18.8817 9.47163 18.75 9.78957 18.75 10.1211C18.75 10.8115 18.1904 11.3711 17.5 11.3711C16.8096 11.3711 16.25 10.8115 16.25 10.1211C16.25 9.12653 16.6451 8.1727 17.3483 7.46944C18.0516 6.76618 19.0054 6.37109 20 6.37109C20.9946 6.37109 21.9484 6.76618 22.6517 7.46944C23.3549 8.1727 23.75 9.12653 23.75 10.1211C23.75 10.8115 23.1904 11.3711 22.5 11.3711C21.8096 11.3711 21.25 10.8115 21.25 10.1211C21.25 9.78957 21.1183 9.47163 20.8839 9.23721C20.6495 9.00279 20.3315 8.87109 20 8.87109Z" fill="#CACBD2"/>
<path fill-rule="evenodd" clip-rule="evenodd" d="M33.75 10.002C33.75 9.3116 34.3096 8.75195 35 8.75195H38.75C39.4404 8.75195 40 9.3116 40 10.002C40 10.6923 39.4404 11.252 38.75 11.252H35C34.3096 11.252 33.75 10.6923 33.75 10.002Z" fill="#CACBD2"/>
<path fill-rule="evenodd" clip-rule="evenodd" d="M0 10.002C0 9.3116 0.559644 8.75195 1.25 8.75195H5C5.69036 8.75195 6.25 9.3116 6.25 10.002C6.25 10.6923 5.69036 11.252 5 11.252H1.25C0.559644 11.252 0 10.6923 0 10.002Z" fill="#CACBD2"/>
<path fill-rule="evenodd" clip-rule="evenodd" d="M8.89552 23.8223C8.16178 23.8223 7.45449 24.1177 6.93022 24.6494C6.40537 25.1817 6.10742 25.9073 6.10742 26.6675V30.7627C6.10742 31.523 6.40537 32.2486 6.93022 32.7809C7.45449 33.3125 8.16178 33.608 8.89552 33.608H35.1431C35.8335 33.608 36.3931 34.1676 36.3931 34.858C36.3931 35.5483 35.8335 36.108 35.1431 36.108H8.89552C7.48731 36.108 6.1404 35.5405 5.15008 34.5362C4.16035 33.5324 3.60742 32.1748 3.60742 30.7627V26.6675C3.60742 25.2555 4.16035 23.8978 5.15008 22.8941C6.1404 21.8898 7.48731 21.3223 8.89552 21.3223H35.1431C35.8335 21.3223 36.3931 21.8819 36.3931 22.5723C36.3931 23.2626 35.8335 23.8223 35.1431 23.8223H8.89552Z" fill="#CACBD2"/>
</svg>
