<svg width="65" height="60" viewBox="0 0 65 60" fill="none" xmlns="http://www.w3.org/2000/svg">
<path d="M14.3002 0C10.1002 0 6.7002 3.4 6.7002 7.6C6.7002 11.8 10.1002 15.2 14.3002 15.2C18.5002 15.2 21.9002 11.8 21.9002 7.6C21.9002 3.4 18.5002 0 14.3002 0ZM50.1002 0C45.9002 0 42.5002 3.4 42.5002 7.6C42.5002 11.8 45.9002 15.2 50.1002 15.2C54.3002 15.2 57.7002 11.8 57.7002 7.6C57.7002 3.4 54.3002 0 50.1002 0Z" fill="url(#paint0_linear)"/>
<path d="M64.6 27.6C64.4 45.3 50 59.5 32.3 59.5C26.5 59.5 21 57.9 16.3 55.2C13.6 56.7 10.8 57.9 7.7 58.7C5.3 59.3 2.7 59.6 0.1 59.6C4.3 59.6 7.7 56.2 7.7 52C7.7 49.6 7 47.3 5.7 45.4C2.1 40.2 0 34 0 27.2C0 23.7 2.9 20.9 6.5 21.1C9.8 21.3 12.3 24.2 12.3 27.5C12.4 36.2 18.2 43.6 26.1 46.2C28 46.8 30.1 47.2 32.2 47.2C43.2 47.2 52.2 38.3 52.2 27.2C52.2 23.5 55.4 20.7 59.1 21.1C62.3 21.5 64.6 24.4 64.6 27.6Z" fill="url(#paint1_linear)"/>
<defs>
<linearGradient id="paint0_linear" x1="6.7002" y1="7.625" x2="57.7302" y2="7.625" gradientUnits="userSpaceOnUse">
<stop offset="0.030878" stop-color="#008ACC"/>
<stop offset="0.2163" stop-color="#0BA8C3"/>
<stop offset="0.6179" stop-color="#26F3AD"/>
<stop offset="0.6772" stop-color="#2AFFA9"/>
</linearGradient>
<linearGradient id="paint1_linear" x1="0" y1="40.34" x2="64.5586" y2="40.34" gradientUnits="userSpaceOnUse">
<stop offset="0.030878" stop-color="#008ACC"/>
<stop offset="0.2163" stop-color="#0BA8C3"/>
<stop offset="0.6179" stop-color="#26F3AD"/>
<stop offset="0.6772" stop-color="#2AFFA9"/>
</linearGradient>
</defs>
</svg>
