<svg width="40" height="40" viewBox="0 0 40 40" fill="none" xmlns="http://www.w3.org/2000/svg">
<g clip-path="url(#clip0)">
<path fill-rule="evenodd" clip-rule="evenodd" d="M12.4497 26.8334C8.96846 27.4346 5.66963 28.8202 2.80307 30.885C2.30791 31.2638 1.90757 31.7524 1.63365 32.3124C1.35973 32.8723 1.21975 33.4883 1.22474 34.1117V39.1834C1.22452 39.2905 1.24544 39.3967 1.2863 39.4958C1.32716 39.5948 1.38715 39.6849 1.46286 39.7607C1.53856 39.8366 1.62848 39.8968 1.72747 39.9378C1.82646 39.9789 1.93257 40 2.03974 40H37.9597C38.0669 40 38.173 39.9789 38.272 39.9378C38.371 39.8968 38.4609 39.8366 38.5366 39.7607C38.6123 39.6849 38.6723 39.5948 38.7132 39.4958C38.754 39.3967 38.775 39.2905 38.7747 39.1834V34.1117C38.7797 33.4883 38.6397 32.8723 38.3658 32.3124C38.0919 31.7524 37.6916 31.2638 37.1964 30.885C34.3298 28.8202 31.031 27.4346 27.5497 26.8334C27.4058 26.8052 27.257 26.8168 27.1192 26.8671C26.9815 26.9173 26.8601 27.0042 26.7681 27.1184C26.7478 27.1426 26.709 27.216 26.6498 27.3279C26.1587 28.2568 24.2674 31.8334 19.9997 31.8334C15.797 31.8334 13.7701 28.0979 13.322 27.2721C13.2758 27.1869 13.2463 27.1326 13.2331 27.1167C13.1396 27.004 13.0177 26.9182 12.88 26.8684C12.7422 26.8186 12.5937 26.8065 12.4497 26.8334ZM35.6999 32.8882C33.4659 31.2861 30.9394 30.1452 28.2681 29.5277C27.9472 30.0348 27.5095 30.6477 26.9365 31.2634C25.5384 32.7657 23.2731 34.3334 19.9997 34.3334C16.776 34.3334 14.5064 32.7294 13.1139 31.256C12.5318 30.6402 12.082 30.0278 11.7518 29.523C9.07294 30.1394 6.53923 31.282 4.29954 32.8882C4.12245 33.0289 3.97887 33.2075 3.87938 33.4109C3.77574 33.6227 3.72277 33.8558 3.72466 34.0917L3.72474 34.1017V37.5H36.2747V34.1017L36.2748 34.0917C36.2767 33.8558 36.2237 33.6227 36.1201 33.4109C36.0206 33.2075 35.877 33.0289 35.6999 32.8882ZM3.72474 39.1834V39.1859L3.72473 39.1884C3.72474 39.1867 3.72474 39.185 3.72474 39.1834ZM12.8752 29.2968C12.8863 29.295 12.8974 29.293 12.9084 29.2909L12.4497 26.8334L12.8752 29.2968ZM28.9082 28.4057C28.9361 28.3547 28.9314 28.3678 28.9021 28.4169C28.9042 28.413 28.9062 28.4093 28.9082 28.4057Z" fill="#CACBD2"/>
<path fill-rule="evenodd" clip-rule="evenodd" d="M11.8363 14.6933C11.8363 16.8593 12.6967 18.9365 14.2283 20.468C15.7598 21.9996 17.837 22.86 20.003 22.86C22.1689 22.86 24.2461 21.9996 25.7777 20.468C27.3092 18.9365 28.1696 16.8593 28.1696 14.6933V11.42C28.1688 11.3414 28.142 11.2654 28.0935 11.2036C28.045 11.1418 27.9774 11.0978 27.9013 11.0783C26.2331 10.6706 24.7243 9.77468 23.568 8.505C23.5295 8.46326 23.4829 8.42988 23.431 8.40694C23.3791 8.384 23.323 8.37199 23.2663 8.37167C23.2098 8.37172 23.1539 8.38361 23.1022 8.40657C23.0505 8.42954 23.0042 8.46307 22.9663 8.505C20.1489 11.5772 16.4538 11.4901 14.2027 11.4371C13.9356 11.4308 13.6889 11.425 13.4663 11.425H12.2413C12.1877 11.425 12.1346 11.4356 12.085 11.4561C12.0355 11.4766 11.9905 11.5067 11.9526 11.5446C11.9147 11.5825 11.8846 11.6275 11.8641 11.6771C11.8435 11.7266 11.833 11.7797 11.833 11.8333V14.6933H11.8363ZM21.1209 6.81843C21.3913 6.52214 21.7202 6.28501 22.0868 6.12204C22.4574 5.95733 22.8584 5.87204 23.264 5.87167L23.2724 5.87166L23.2807 5.87171C23.6807 5.87402 24.0759 5.95865 24.4417 6.12033C24.8075 6.28204 25.1361 6.51732 25.407 6.81149L25.4117 6.81656L25.4163 6.82164C26.2352 7.72085 27.303 8.3562 28.4837 8.64709C28.0512 7.3279 27.3129 6.11507 26.3129 5.11505C24.6385 3.44066 22.3676 2.5 19.9996 2.5C17.6317 2.5 15.3607 3.44066 13.6864 5.11505C12.585 6.21641 11.8011 7.57589 11.3935 9.05131C11.6678 8.96772 11.9535 8.925 12.2413 8.925H13.4663C13.7388 8.925 14.0158 8.92909 14.2962 8.93322C16.5949 8.96712 19.1139 9.00427 21.1209 6.81843ZM24.2163 25.3067C26.3416 24.4613 28.1647 22.9982 29.4503 21.1063C30.7358 19.2144 31.4247 16.9806 31.428 14.6933V11.4283C31.428 8.39735 30.2239 5.49051 28.0807 3.34728C25.9375 1.20405 23.0306 0 19.9996 0C16.9687 0 14.0618 1.20405 11.9186 3.34728C9.77536 5.49051 8.5713 8.39735 8.5713 11.4283V14.6933C8.5683 16.5593 9.02295 18.3975 9.89544 20.0469C10.7679 21.6963 12.0316 23.1065 13.5758 24.154C15.1199 25.2016 16.8974 25.8544 18.7525 26.0554C20.6076 26.2563 22.4837 25.9992 24.2163 25.3067Z" fill="#CACBD2"/>
<path d="M21.6318 15.1021C21.6318 15.5353 21.8039 15.9507 22.1102 16.257C22.4165 16.5633 22.832 16.7354 23.2652 16.7354C23.6984 16.7354 24.1138 16.5633 24.4201 16.257C24.7264 15.9507 24.8985 15.5353 24.8985 15.1021C24.8985 14.6689 24.7264 14.2535 24.4201 13.9471C24.1138 13.6408 23.6984 13.4688 23.2652 13.4688C22.832 13.4688 22.4165 13.6408 22.1102 13.9471C21.8039 14.2535 21.6318 14.6689 21.6318 15.1021Z" fill="#CACBD2"/>
<path d="M15.1016 15.1021C15.1016 15.5353 15.2736 15.9507 15.58 16.257C15.8863 16.5633 16.3017 16.7354 16.7349 16.7354C17.1681 16.7354 17.5835 16.5633 17.8898 16.257C18.1961 15.9507 18.3682 15.5353 18.3682 15.1021C18.3682 14.6689 18.1961 14.2535 17.8898 13.9471C17.5835 13.6408 17.1681 13.4688 16.7349 13.4688C16.3017 13.4688 15.8863 13.6408 15.58 13.9471C15.2736 14.2535 15.1016 14.6689 15.1016 15.1021Z" fill="#CACBD2"/>
<path d="M20.1329 21.0125C20.6104 21.0134 21.0854 20.9443 21.5429 20.8075C21.7894 20.7334 22.0279 20.6345 22.2545 20.5125C22.4594 20.402 22.6214 20.2263 22.7148 20.0132C22.8083 19.8001 22.8279 19.5619 22.7704 19.3364C22.7129 19.111 22.5817 18.9112 22.3977 18.7688C22.2136 18.6265 21.9872 18.5497 21.7545 18.5508H18.4996C18.2663 18.549 18.0392 18.6255 17.8545 18.7679C17.6697 18.9103 17.5381 19.1106 17.4805 19.3366C17.4229 19.5627 17.4428 19.8015 17.5369 20.0149C17.631 20.2284 17.7939 20.4041 17.9996 20.5141C18.2258 20.6354 18.4637 20.7336 18.7096 20.8075C19.1686 20.9451 19.6453 21.0147 20.1245 21.0141L20.1329 21.0125Z" fill="#CACBD2"/>
</g>
<defs>
<clipPath id="clip0">
<rect width="40" height="40" fill="white"/>
</clipPath>
</defs>
</svg>
