<svg width="38" height="40" viewBox="0 0 38 40" fill="none" xmlns="http://www.w3.org/2000/svg">
<path d="M11.4497 26.8334C7.9684 27.4346 4.6696 28.8202 1.80306 30.885C1.3079 31.2638 0.907561 31.7524 0.633647 32.3124C0.359733 32.8723 0.219746 33.4883 0.224738 34.1117V39.1834C0.224519 39.2905 0.245438 39.3967 0.286297 39.4958C0.327156 39.5948 0.387154 39.6849 0.462855 39.7607C0.538556 39.8366 0.628474 39.8968 0.727463 39.9378C0.826451 39.9789 0.932566 40 1.03973 40H36.9595C37.0667 40 37.1728 39.9789 37.2718 39.9378C37.3707 39.8968 37.4607 39.8366 37.5364 39.7607C37.6121 39.6849 37.6721 39.5948 37.7129 39.4958C37.7538 39.3967 37.7747 39.2905 37.7745 39.1834V34.1117C37.7795 33.4883 37.6395 32.8723 37.3656 32.3124C37.0917 31.7524 36.6913 31.2638 36.1962 30.885C33.3296 28.8202 30.0308 27.4346 26.5496 26.8334C26.4057 26.8052 26.2568 26.8168 26.1191 26.8671C25.9813 26.9173 25.8599 27.0042 25.7679 27.1184C25.5796 27.3434 23.7812 31.8334 18.9996 31.8334C14.363 31.8334 12.3747 27.2867 12.233 27.1167C12.1395 27.004 12.0176 26.9182 11.8799 26.8684C11.7422 26.8186 11.5936 26.8065 11.4497 26.8334V26.8334Z" fill="#2AFFA9"/>
<path d="M23.2162 25.3067C25.3415 24.4613 27.1646 22.9982 28.4501 21.1063C29.7356 19.2144 30.4245 16.9806 30.4278 14.6933V11.4283C30.4278 8.39735 29.2238 5.49051 27.0806 3.34728C24.9373 1.20405 22.0305 0 18.9996 0C15.9686 0 13.0618 1.20405 10.9186 3.34728C8.77535 5.49051 7.5713 8.39735 7.5713 11.4283V14.6933C7.5683 16.5593 8.02295 18.3975 8.89543 20.0469C9.76791 21.6963 11.0316 23.1065 12.5757 24.154C14.1199 25.2016 15.8974 25.8544 17.7524 26.0554C19.6075 26.2563 21.4836 25.9992 23.2162 25.3067V25.3067ZM10.8329 14.6933V11.8333C10.8329 11.7797 10.8435 11.7266 10.864 11.6771C10.8846 11.6275 10.9146 11.5825 10.9525 11.5446C10.9905 11.5067 11.0355 11.4766 11.085 11.4561C11.1346 11.4356 11.1877 11.425 11.2413 11.425H12.4663C14.5646 11.425 18.8146 11.9417 21.9662 8.505C22.0041 8.46307 22.0504 8.42954 22.1021 8.40657C22.1538 8.38361 22.2097 8.37172 22.2662 8.37167C22.323 8.37199 22.379 8.384 22.4309 8.40694C22.4828 8.42988 22.5294 8.46326 22.5679 8.505C23.7242 9.77468 25.233 10.6706 26.9012 11.0783C26.9773 11.0978 27.0448 11.1418 27.0934 11.2036C27.1419 11.2654 27.1687 11.3414 27.1695 11.42V14.6933C27.1695 16.8593 26.3091 18.9365 24.7776 20.468C23.246 21.9996 21.1688 22.86 19.0029 22.86C16.837 22.86 14.7598 21.9996 13.2282 20.468C11.6967 18.9365 10.8363 16.8593 10.8363 14.6933H10.8329Z" fill="#2AFFA9"/>
<path d="M20.6318 15.1021C20.6318 15.5353 20.8039 15.9507 21.1102 16.257C21.4165 16.5633 21.832 16.7354 22.2652 16.7354C22.6983 16.7354 23.1138 16.5633 23.4201 16.257C23.7264 15.9507 23.8985 15.5353 23.8985 15.1021C23.8985 14.6689 23.7264 14.2535 23.4201 13.9471C23.1138 13.6408 22.6983 13.4688 22.2652 13.4688C21.832 13.4688 21.4165 13.6408 21.1102 13.9471C20.8039 14.2535 20.6318 14.6689 20.6318 15.1021Z" fill="#2AFFA9"/>
<path d="M14.1016 15.1021C14.1016 15.5353 14.2736 15.9507 14.58 16.257C14.8863 16.5633 15.3017 16.7354 15.7349 16.7354C16.1681 16.7354 16.5835 16.5633 16.8898 16.257C17.1961 15.9507 17.3682 15.5353 17.3682 15.1021C17.3682 14.6689 17.1961 14.2535 16.8898 13.9471C16.5835 13.6408 16.1681 13.4688 15.7349 13.4688C15.3017 13.4688 14.8863 13.6408 14.58 13.9471C14.2736 14.2535 14.1016 14.6689 14.1016 15.1021Z" fill="#2AFFA9"/>
<path d="M19.1329 21.0125C19.6104 21.0134 20.0854 20.9443 20.5429 20.8075C20.7894 20.7334 21.0278 20.6345 21.2545 20.5125C21.4593 20.402 21.6213 20.2263 21.7148 20.0132C21.8083 19.8001 21.8278 19.5619 21.7704 19.3364C21.7129 19.111 21.5817 18.9112 21.3976 18.7688C21.2136 18.6265 20.9872 18.5497 20.7545 18.5508H17.4995C17.2663 18.549 17.0392 18.6255 16.8545 18.7679C16.6697 18.9103 16.5381 19.1106 16.4805 19.3366C16.4229 19.5627 16.4428 19.8015 16.5369 20.0149C16.631 20.2284 16.7939 20.4041 16.9995 20.5141C17.2258 20.6354 17.4637 20.7336 17.7095 20.8075C18.1686 20.9451 18.6453 21.0147 19.1245 21.0141L19.1329 21.0125Z" fill="#2AFFA9"/>
</svg>
